<svg xmlns="http://www.w3.org/2000/svg" xmlns:xlink="http://www.w3.org/1999/xlink" viewBox="0 0 34.37 32.48"><defs><style>.cls-1{isolation:isolate;}.cls-2{fill:#ffda40;}.cls-3{fill:url(#Áåçûìÿííûé_ãðàäèåíò_3);}.cls-4{mix-blend-mode:multiply;opacity:0.6;fill:url(#Áåçûìÿííûé_ãðàäèåíò_442);}</style><linearGradient id="Áåçûìÿííûé_ãðàäèåíò_3" x1="13.37" y1="-6.75" x2="13.18" y2="22.46" gradientTransform="translate(0.81 -1.7) rotate(3.65)" gradientUnits="userSpaceOnUse"><stop offset="0" stop-color="#a57200"/><stop offset="0.25" stop-color="#a36c01"/><stop offset="0.57" stop-color="#9f5b02"/><stop offset="0.95" stop-color="#973f05"/><stop offset="1" stop-color="#963b05"/></linearGradient><linearGradient id="Áåçûìÿííûé_ãðàäèåíò_442" x1="18.17" y1="32.3" x2="16.23" y2="22.9" gradientUnits="userSpaceOnUse"><stop offset="0" stop-color="#f44908"/><stop offset="0.4" stop-color="#d4312a"/><stop offset="0.77" stop-color="#bd1f41"/><stop offset="1" stop-color="#b5194a"/></linearGradient></defs><g class="cls-1"><g id="Layer_2" data-name="Layer 2"><g id="layer1"><path class="cls-2" d="M23.64,22.4l-1.05.07-.19-.64L19.89,22l-5.09.32a2.66,2.66,0,0,1-.81.18,10,10,0,0,1-1.43,0l-7.63.48L0,22.62c0-.8,0-2.06,0-3.58a61.78,61.78,0,0,1,.66-8.2h0c0-.28.09-.54.13-.81.08-.45.17-.88.27-1.32C2,4.45,3.72.78,6.81.11c4-.87,6.84,3.7,8.68,8.45.49,1.28.91,2.57,1.26,3.78s.58,2.12.79,3L18,17c-.07-1.25.09-3.08,1.58-3.39C21.62,13.15,23.32,20.8,23.64,22.4Z"/><path class="cls-3" d="M24.34,22.39l-1.05.07h0l-2.51.15-5.09.32a2.18,2.18,0,0,1-.81.18,11.65,11.65,0,0,1-1.43,0l-7.64.47-4.87.31c0-.16,0-.37,0-.62,0-.8-.05-2.06,0-3.58a63.65,63.65,0,0,1,.67-8.2,0,0,0,0,1,0,0c0-.27.09-.54.13-.81Q1.82,10,2,9.32C2.9,5.08,4.6,1.4,7.69.73c4-.87,6.84,3.7,8.67,8.45.5,1.29.92,2.58,1.27,3.79s.58,2.11.79,3c.26,1.1.43,1.95.52,2.43,0-.17-.05-.38-.06-.62a.19.19,0,0,0,0-.08.36.36,0,0,0,0-.1c-.07-1.26.09-3.09,1.58-3.39C22.49,13.77,24,20.79,24.34,22.39Z"/><path class="cls-4" d="M0,23.86s22.39,9.32,31.64,8.58-8-8-8-8S28.81,26.67,31,26s-6.7-3.59-6.7-3.59Z"/></g></g></g></svg>